<svg xmlns="http://www.w3.org/2000/svg" viewBox="0 0 64 64" role="img" aria-label="Weather icon">
  <defs>
    <linearGradient id="sun" x1="0" y1="0" x2="1" y2="1">
      <stop offset="0%" stop-color="#f59e0b" />
      <stop offset="100%" stop-color="#f97316" />
    </linearGradient>
  </defs>
  <rect width="64" height="64" rx="12" fill="#0f172a" />
  <circle cx="24" cy="24" r="10" fill="url(#sun)" />
  <path d="M20 42c0-6 4.5-10 10-10 4 0 7.5 2 9 5 0.6-0.2 1.3-0.3 2-0.3 3.9 0 7 3.1 7 7 0 3.5-2.5 6.3-5.8 6.9H24c-3.3 0-6-2.7-6-6 0-1 0.2-1.8 0.6-2.6 0.4-0.8 0.9-1.4 1.4-2z" fill="#e2e8f0" />
</svg>
